<svg xmlns="http://www.w3.org/2000/svg" width="128" height="128" viewBox="0 0 128 128" role="img" aria-label="S2P preview icon">
  <defs>
    <linearGradient id="bg" x1="18" y1="10" x2="110" y2="118" gradientUnits="userSpaceOnUse">
      <stop offset="0" stop-color="#102235"/>
      <stop offset="1" stop-color="#07111d"/>
    </linearGradient>
    <linearGradient id="band" x1="45" y1="24" x2="76" y2="104" gradientUnits="userSpaceOnUse">
      <stop offset="0" stop-color="#38bdf8" stop-opacity="0.28"/>
      <stop offset="1" stop-color="#22c55e" stop-opacity="0.16"/>
    </linearGradient>
    <filter id="soft-shadow" x="-20%" y="-20%" width="140%" height="140%">
      <feDropShadow dx="0" dy="4" stdDeviation="5" flood-color="#000000" flood-opacity="0.28"/>
    </filter>
  </defs>

  <rect x="8" y="8" width="112" height="112" rx="24" fill="url(#bg)" filter="url(#soft-shadow)"/>
  <rect x="22" y="24" width="84" height="76" rx="8" fill="#0b1524" stroke="#2d4056" stroke-width="2"/>
  <rect x="48" y="28" width="28" height="68" rx="3" fill="url(#band)"/>

  <g stroke="#20364d" stroke-width="1">
    <path d="M32 42H98"/>
    <path d="M32 58H98"/>
    <path d="M32 74H98"/>
    <path d="M32 90H98"/>
    <path d="M44 32V94"/>
    <path d="M64 32V94"/>
    <path d="M84 32V94"/>
  </g>

  <path d="M32 86C40 84 44 78 49 70C56 58 62 45 70 46C78 47 80 62 86 66C91 70 95 63 98 55"
        fill="none" stroke="#22c55e" stroke-width="6" stroke-linecap="round" stroke-linejoin="round"/>
  <path d="M32 75C39 71 45 73 52 78C59 83 64 86 71 84C79 82 87 75 98 78"
        fill="none" stroke="#38bdf8" stroke-width="4" stroke-linecap="round" stroke-linejoin="round" opacity="0.88"/>
  <path d="M32 50C40 54 46 57 54 55C64 52 70 42 80 44C88 46 92 51 98 48"
        fill="none" stroke="#f97316" stroke-width="3" stroke-linecap="round" stroke-linejoin="round" opacity="0.82"/>

  <g stroke="#e2e8f0" stroke-width="3" stroke-linecap="round" opacity="0.9">
    <path d="M48 29V97"/>
    <path d="M76 29V97"/>
  </g>

  <circle cx="70" cy="46" r="4.5" fill="#bbf7d0" stroke="#052e16" stroke-width="2"/>
  <path d="M26 100H104" stroke="#64748b" stroke-width="3" stroke-linecap="round"/>
</svg>
